<svg width="124" height="72" viewBox="0 0 124 72" fill="none" xmlns="http://www.w3.org/2000/svg">
<path d="M0.703125 70.0001V1.36011H33.5351C40.5751 1.36011 46.3351 3.12011 50.8151 6.64011C55.2951 10.0961 57.5351 14.9281 57.5351 21.1361C57.5351 29.4561 53.5671 34.9921 45.6311 37.7441V38.0321C51.3911 39.9521 54.7191 44.1441 55.6151 50.6081C55.9991 52.8481 56.2551 55.6321 56.3831 58.9601C56.5751 62.2241 56.7991 64.6881 57.0551 66.3521C57.3111 67.9521 57.7911 68.8801 58.4951 69.1361V70.0001H41.9831C41.4711 69.6801 41.0551 68.7521 40.7351 67.2161C40.4791 65.6801 40.2551 63.5041 40.0631 60.6881C39.8711 57.8721 39.6471 55.6641 39.3911 54.0641C38.4951 47.5361 34.6871 44.2721 27.9671 44.2721H17.6951V70.0001H0.703125ZM17.6951 31.6961H30.4631C33.7911 31.6961 36.3191 30.9601 38.0471 29.4881C39.7751 28.0161 40.6391 25.9681 40.6391 23.3441C40.6391 20.7841 39.8071 18.7361 38.1431 17.2001C36.4791 15.6001 34.0471 14.8001 30.8471 14.8001H17.6951V31.6961Z" fill="white"/>
<path d="M93.3334 71.5361C83.3494 71.5361 75.1894 68.2081 68.8534 61.5521C62.5814 54.8321 59.4454 46.2881 59.4454 35.9201C59.4454 25.5521 62.5494 16.9761 68.7574 10.1921C74.9654 3.40811 83.1254 0.0161133 93.2374 0.0161133C101.045 0.0161133 107.573 2.03211 112.821 6.06412C118.773 10.5441 122.197 16.8481 123.093 24.9761H106.101C105.653 21.8401 104.277 19.2481 101.973 17.2001C99.6694 15.1521 96.7254 14.1281 93.1414 14.1281C87.7654 14.1281 83.6694 16.1441 80.8534 20.1761C78.1014 24.1441 76.7254 29.3921 76.7254 35.9201C76.7254 42.3201 78.2294 47.5361 81.2374 51.5681C84.2454 55.6001 88.2454 57.6161 93.2374 57.6161C96.9494 57.6161 99.9894 56.5601 102.357 54.4481C104.789 52.3361 106.197 49.5841 106.581 46.1921H123.573C123.061 53.1041 120.309 58.9601 115.317 63.7601C109.941 68.9441 102.613 71.5361 93.3334 71.5361Z" fill="white"/>
</svg>
